<mxfile host="app.diagrams.net" modified="2023-09-21T19:07:53.378Z" agent="Mozilla/5.0 (X11; Linux x86_64; rv:102.0) Gecko/20100101 Firefox/102.0" version="21.8.0" etag="3KuJce_yYUD7xkVy65gu" type="github">
  <diagram name="PÃ¡gina-1" id="o_Zxrqv8MT8oihD1HyIn">
    <mxGraphModel>
      <root>
        <mxCell id="0" />
        <mxCell id="1" parent="0" />
      </root>
    </mxGraphModel>
  </diagram>
</mxfile>
